<?xml version="1.0" encoding="UTF-8" standalone="no"?>
<!-- Created with Inkscape (http://www.inkscape.org/) -->

<svg
   width="40.000004mm"
   height="60mm"
   viewBox="0 0 40.000003 60"
   version="1.1"
   id="svg7674"
   xml:space="preserve"
   inkscape:export-filename="device_create.svg"
   inkscape:export-xdpi="96"
   inkscape:export-ydpi="96"
   inkscape:version="1.2 (dc2aedaf03, 2022-05-15)"
   sodipodi:docname="asset.svg"
   xmlns:inkscape="http://www.inkscape.org/namespaces/inkscape"
   xmlns:sodipodi="http://sodipodi.sourceforge.net/DTD/sodipodi-0.dtd"
   xmlns="http://www.w3.org/2000/svg"
   xmlns:svg="http://www.w3.org/2000/svg"><sodipodi:namedview
     id="namedview7676"
     pagecolor="#bfbfbf"
     bordercolor="#000000"
     borderopacity="0.25"
     inkscape:showpageshadow="2"
     inkscape:pageopacity="0"
     inkscape:pagecheckerboard="0"
     inkscape:deskcolor="#d1d1d1"
     inkscape:document-units="px"
     showgrid="true"
     inkscape:zoom="3.7168282"
     inkscape:cx="188.1981"
     inkscape:cy="152.01133"
     inkscape:window-width="3436"
     inkscape:window-height="1401"
     inkscape:window-x="1080"
     inkscape:window-y="18"
     inkscape:window-maximized="1"
     inkscape:current-layer="layer1"><inkscape:grid
       type="xygrid"
       id="grid7678"
       units="mm"
       spacingx="0.99999998"
       spacingy="0.99999998"
       snapvisiblegridlinesonly="false" /></sodipodi:namedview><defs
     id="defs7671" /><g
     inkscape:label="Layer 1"
     inkscape:groupmode="layer"
     id="layer1"><path
       d="M 35.922935,47.542784 H 34.410516 V 13.059632 c 0,-1.002355 -0.812545,-1.814902 -1.814903,-1.814902 H 7.1869828 c -1.002356,0 -1.8149028,0.812547 -1.8149028,1.814902 V 47.542784 H 3.8596621 c -0.5011405,0 -0.9074508,0.406303 -0.9074508,0.907442 v 1.512418 H 36.830387 v -1.512418 c 0,-0.501139 -0.406314,-0.907442 -0.907452,-0.907442 z M 12.63169,16.991921 c 0,-0.50114 0.406312,-0.907451 0.907451,-0.907451 h 3.024836 c 0.50114,0 0.907453,0.406311 0.907453,0.907451 v 3.024838 c 0,0.501139 -0.406313,0.907451 -0.907453,0.907451 h -3.024836 c -0.501139,0 -0.907451,-0.406312 -0.907451,-0.907451 z m 0,7.259609 c 0,-0.501139 0.406312,-0.90745 0.907451,-0.90745 h 3.024836 c 0.50114,0 0.907453,0.406311 0.907453,0.90745 v 3.024837 c 0,0.501141 -0.406313,0.907451 -0.907453,0.907451 h -3.024836 c -0.501139,0 -0.907451,-0.40631 -0.907451,-0.907451 z m 3.932287,11.191899 h -3.024836 c -0.501139,0 -0.907451,-0.406313 -0.907451,-0.907451 V 31.51114 c 0,-0.50114 0.406312,-0.907452 0.907451,-0.907452 h 3.024836 c 0.50114,0 0.907453,0.406312 0.907453,0.907452 v 3.024838 c 0,0.501138 -0.406313,0.907451 -0.907453,0.907451 z m 5.747191,12.099355 H 17.47143 v -6.352166 c 0,-0.501139 0.40631,-0.907443 0.90745,-0.907443 h 3.024837 c 0.501139,0 0.907451,0.406304 0.907451,0.907443 z m 4.83974,-13.006806 c 0,0.501138 -0.406312,0.907451 -0.907451,0.907451 H 23.21862 c -0.50114,0 -0.907452,-0.406313 -0.907452,-0.907451 V 31.51114 c 0,-0.50114 0.406312,-0.907452 0.907452,-0.907452 h 3.024837 c 0.501139,0 0.907451,0.406312 0.907451,0.907452 z m 0,-7.259611 c 0,0.501141 -0.406312,0.907451 -0.907451,0.907451 H 23.21862 c -0.50114,0 -0.907452,-0.40631 -0.907452,-0.907451 V 24.25153 c 0,-0.501139 0.406312,-0.90745 0.907452,-0.90745 h 3.024837 c 0.501139,0 0.907451,0.406311 0.907451,0.90745 z m 0,-7.259608 c 0,0.501139 -0.406312,0.907451 -0.907451,0.907451 H 23.21862 c -0.50114,0 -0.907452,-0.406312 -0.907452,-0.907451 v -3.024838 c 0,-0.50114 0.406312,-0.907451 0.907452,-0.907451 h 3.024837 c 0.501139,0 0.907451,0.406311 0.907451,0.907451 z"
       id="path2557"
       style="display:inline;fill:#ffffff;stroke-width:0.0756209" /></g></svg>
