<?xml version="1.0" encoding="UTF-8" standalone="no"?>
<!-- Created with Inkscape (http://www.inkscape.org/) -->

<svg
   width="40.000004mm"
   height="60mm"
   viewBox="0 0 40.000003 60"
   version="1.1"
   id="svg7674"
   xml:space="preserve"
   inkscape:export-filename="device_create.svg"
   inkscape:export-xdpi="96"
   inkscape:export-ydpi="96"
   inkscape:version="1.2 (dc2aedaf03, 2022-05-15)"
   sodipodi:docname="bucket.svg"
   xmlns:inkscape="http://www.inkscape.org/namespaces/inkscape"
   xmlns:sodipodi="http://sodipodi.sourceforge.net/DTD/sodipodi-0.dtd"
   xmlns="http://www.w3.org/2000/svg"
   xmlns:svg="http://www.w3.org/2000/svg"><sodipodi:namedview
     id="namedview7676"
     pagecolor="#bfbfbf"
     bordercolor="#000000"
     borderopacity="0.25"
     inkscape:showpageshadow="2"
     inkscape:pageopacity="0"
     inkscape:pagecheckerboard="0"
     inkscape:deskcolor="#d1d1d1"
     inkscape:document-units="px"
     showgrid="true"
     inkscape:zoom="3.7168282"
     inkscape:cx="257.4776"
     inkscape:cy="101.43057"
     inkscape:window-width="3436"
     inkscape:window-height="1401"
     inkscape:window-x="1080"
     inkscape:window-y="18"
     inkscape:window-maximized="1"
     inkscape:current-layer="layer1"><inkscape:grid
       type="xygrid"
       id="grid7678"
       units="mm"
       spacingx="0.99999998"
       spacingy="0.99999998"
       snapvisiblegridlinesonly="false" /></sodipodi:namedview><defs
     id="defs7671" /><g
     inkscape:label="Layer 1"
     inkscape:groupmode="layer"
     id="layer1"><path
       id="path15096"
       style="fill:#ffffff;stroke-width:0.0760831"
       d="M 20.031852 10.500134 C 10.620356 10.500134 2.9894815 13.225744 2.9894815 16.587101 L 2.9894815 20.239074 C 2.9894815 23.601953 10.620356 26.325524 20.031852 26.325524 C 29.443347 26.325524 37.074739 23.601953 37.074739 20.239074 L 37.074739 16.587101 C 37.074739 13.225744 29.443347 10.500134 20.031852 10.500134 z M 19.896459 11.270113 C 20.500482 11.270113 20.99045 11.759397 20.99045 12.364103 L 20.99045 17.2868 L 25.91263 17.2868 C 26.517681 17.286464 27.00662 17.775224 27.00662 18.380273 C 27.00662 18.98498 26.516654 19.474263 25.91263 19.474263 L 20.99045 19.474263 L 20.99045 24.39696 C 20.99045 25.001667 20.500482 25.490433 19.896459 25.490433 C 19.292436 25.490433 18.802469 25.001667 18.802469 24.39696 L 18.802469 19.474263 L 13.879773 19.474263 C 13.275749 19.474263 12.786299 18.98498 12.786299 18.380273 C 12.786299 17.775566 13.275749 17.2868 13.879773 17.2868 L 18.802469 17.2868 L 18.802469 12.364103 C 18.802469 11.759397 19.292436 11.270113 19.896459 11.270113 z M 2.9894815 24.659476 L 2.9894815 32.412491 C 2.9894815 35.77537 10.620356 38.498941 20.031852 38.498941 C 29.443347 38.498941 37.074739 35.77537 37.074739 32.412491 L 37.074739 24.659476 C 35.941096 25.549649 34.419028 26.272554 32.904967 26.835571 C 29.488838 28.052902 24.939221 28.760001 20.031852 28.760001 C 15.124484 28.760001 10.571643 28.052902 7.1623533 26.835571 C 5.5775393 26.272554 4.1254051 25.549649 2.9894815 24.659476 z M 2.9894815 36.832893 L 2.9894815 43.368411 C 2.9894815 46.731289 10.620356 49.454861 20.031852 49.454861 C 29.443347 49.454861 37.074739 46.731289 37.074739 43.368411 L 37.074739 36.832893 C 35.941096 37.723067 34.419028 38.445454 32.904967 39.008471 C 29.488838 40.225804 24.939221 40.933418 20.031852 40.933418 C 15.124484 40.933418 10.571643 40.225804 7.1623533 39.008471 C 5.5775393 38.445454 4.1254051 37.723067 2.9894815 36.832893 z " /><ellipse
       style="fill:#ffffff;stroke-width:0.692275;stroke-linecap:round;stroke-linejoin:round;stroke-miterlimit:0;paint-order:stroke fill markers"
       id="path842"
       cx="19.595459"
       cy="18.360384"
       rx="7.4603825"
       ry="7.2482433" /></g></svg>
