<?xml version="1.0" encoding="UTF-8" standalone="no"?>
<!-- Created with Inkscape (http://www.inkscape.org/) -->

<svg
   width="40.000004mm"
   height="60mm"
   viewBox="0 0 40.000003 60"
   version="1.1"
   id="svg7674"
   xml:space="preserve"
   inkscape:export-filename="device_create.svg"
   inkscape:export-xdpi="96"
   inkscape:export-ydpi="96"
   inkscape:version="1.2 (dc2aedaf03, 2022-05-15)"
   sodipodi:docname="property.svg"
   xmlns:inkscape="http://www.inkscape.org/namespaces/inkscape"
   xmlns:sodipodi="http://sodipodi.sourceforge.net/DTD/sodipodi-0.dtd"
   xmlns="http://www.w3.org/2000/svg"
   xmlns:svg="http://www.w3.org/2000/svg"><sodipodi:namedview
     id="namedview7676"
     pagecolor="#bfbfbf"
     bordercolor="#000000"
     borderopacity="0.25"
     inkscape:showpageshadow="2"
     inkscape:pageopacity="0"
     inkscape:pagecheckerboard="0"
     inkscape:deskcolor="#d1d1d1"
     inkscape:document-units="px"
     showgrid="true"
     inkscape:zoom="3.7168282"
     inkscape:cx="262.99305"
     inkscape:cy="126.4519"
     inkscape:window-width="3436"
     inkscape:window-height="1401"
     inkscape:window-x="1080"
     inkscape:window-y="18"
     inkscape:window-maximized="1"
     inkscape:current-layer="layer1"><inkscape:grid
       type="xygrid"
       id="grid7678"
       units="mm"
       spacingx="0.99999998"
       spacingy="0.99999998"
       snapvisiblegridlinesonly="false" /></sodipodi:namedview><defs
     id="defs7671" /><g
     inkscape:label="Layer 1"
     inkscape:groupmode="layer"
     id="layer1"><path
       d="m 6.2648205,17.907357 a 3.1557141,3.1557141 0 1 0 3.155714,3.155715 3.1557141,3.1557141 0 0 0 -3.155714,-3.155715 z m 0,10.519048 a 3.1557141,3.1557141 0 1 0 3.155714,3.155715 3.1557141,3.1557141 0 0 0 -3.155714,-3.155715 z m 0,10.519045 a 3.1557141,3.1557141 0 1 0 3.155714,3.155715 3.1557141,3.1557141 0 0 0 -3.155714,-3.155715 z M 35.718155,39.997357 H 14.680058 a 1.0519047,1.0519047 0 0 0 -1.051903,1.051903 v 2.103811 a 1.0519047,1.0519047 0 0 0 1.051903,1.051904 h 21.038097 a 1.0519047,1.0519047 0 0 0 1.051902,-1.051904 V 41.04926 a 1.0519047,1.0519047 0 0 0 -1.051902,-1.051903 z m 0,-21.038094 H 14.680058 a 1.0519047,1.0519047 0 0 0 -1.051903,1.051904 v 2.10381 a 1.0519047,1.0519047 0 0 0 1.051903,1.051904 h 21.038097 a 1.0519047,1.0519047 0 0 0 1.051902,-1.051904 v -2.10381 a 1.0519047,1.0519047 0 0 0 -1.051902,-1.051904 z m 0,10.519047 H 14.680058 a 1.0519047,1.0519047 0 0 0 -1.051903,1.051904 v 2.103808 a 1.0519047,1.0519047 0 0 0 1.051903,1.051906 h 21.038097 a 1.0519047,1.0519047 0 0 0 1.051902,-1.051906 V 30.530214 A 1.0519047,1.0519047 0 0 0 35.718155,29.47831 Z"
       id="path3157"
       style="stroke-width:0.065744;fill:#ffffff" /></g></svg>
