<?xml version="1.0" encoding="UTF-8" standalone="no"?>
<!-- Created with Inkscape (http://www.inkscape.org/) -->

<svg
   width="40.000004mm"
   height="60mm"
   viewBox="0 0 40.000003 60"
   version="1.1"
   id="svg7674"
   xml:space="preserve"
   inkscape:export-filename="device_create.svg"
   inkscape:export-xdpi="96"
   inkscape:export-ydpi="96"
   inkscape:version="1.2 (dc2aedaf03, 2022-05-15)"
   sodipodi:docname="server.svg"
   xmlns:inkscape="http://www.inkscape.org/namespaces/inkscape"
   xmlns:sodipodi="http://sodipodi.sourceforge.net/DTD/sodipodi-0.dtd"
   xmlns="http://www.w3.org/2000/svg"
   xmlns:svg="http://www.w3.org/2000/svg"><sodipodi:namedview
     id="namedview7676"
     pagecolor="#bfbfbf"
     bordercolor="#000000"
     borderopacity="0.25"
     inkscape:showpageshadow="2"
     inkscape:pageopacity="0"
     inkscape:pagecheckerboard="0"
     inkscape:deskcolor="#d1d1d1"
     inkscape:document-units="px"
     showgrid="true"
     inkscape:zoom="3.7168282"
     inkscape:cx="80.983027"
     inkscape:cy="116.76623"
     inkscape:window-width="3436"
     inkscape:window-height="1401"
     inkscape:window-x="1080"
     inkscape:window-y="18"
     inkscape:window-maximized="1"
     inkscape:current-layer="layer1"><inkscape:grid
       type="xygrid"
       id="grid7678"
       units="mm"
       spacingx="0.99999998"
       spacingy="0.99999998"
       snapvisiblegridlinesonly="false" /></sodipodi:namedview><defs
     id="defs7671" /><g
     inkscape:label="Layer 1"
     inkscape:groupmode="layer"
     id="layer1"><path
       d="M 34.868185,23.601899 H 5.1298909 c -1.1731333,0 -2.1241612,-0.951028 -2.1241612,-2.124163 v -4.248328 c 0,-1.173136 0.9510279,-2.124164 2.1241612,-2.124164 H 34.868185 c 1.173134,0 2.124161,0.951028 2.124161,2.124164 v 4.248328 c 0,1.173135 -0.951027,2.124163 -2.124161,2.124163 z m -3.186246,-5.84145 c -0.879872,0 -1.593119,0.713254 -1.593119,1.593122 0,0.879869 0.713247,1.593123 1.593119,1.593123 0.879871,0 1.593118,-0.713254 1.593118,-1.593123 0,-0.879868 -0.713247,-1.593122 -1.593118,-1.593122 z m -4.248332,0 c -0.879863,0 -1.593119,0.713254 -1.593119,1.593122 0,0.879869 0.713256,1.593123 1.593119,1.593123 0.879871,0 1.593128,-0.713254 1.593128,-1.593123 0,-0.879868 -0.713257,-1.593122 -1.593128,-1.593122 z m 7.434578,16.462273 H 5.1298909 c -1.1731333,0 -2.1241612,-0.951028 -2.1241612,-2.12417 v -4.248325 c 0,-1.173137 0.9510279,-2.124164 2.1241612,-2.124164 H 34.868185 c 1.173134,0 2.124161,0.951027 2.124161,2.124164 v 4.248325 c 0,1.173142 -0.951027,2.12417 -2.124161,2.12417 z m -3.186246,-5.841455 c -0.879872,0 -1.593119,0.713252 -1.593119,1.593123 0,0.879872 0.713247,1.593119 1.593119,1.593119 0.879871,0 1.593118,-0.713247 1.593118,-1.593119 0,-0.879871 -0.713247,-1.593123 -1.593118,-1.593123 z m -4.248332,0 c -0.879863,0 -1.593119,0.713252 -1.593119,1.593123 0,0.879872 0.713256,1.593119 1.593119,1.593119 0.879871,0 1.593128,-0.713247 1.593128,-1.593119 0,-0.879871 -0.713257,-1.593123 -1.593128,-1.593123 z m 7.434578,16.462271 H 5.1298909 c -1.1731333,0 -2.1241612,-0.951028 -2.1241612,-2.124161 v -4.248332 c 0,-1.173133 0.9510279,-2.124162 2.1241612,-2.124162 H 34.868185 c 1.173134,0 2.124161,0.951029 2.124161,2.124162 v 4.248332 c 0,1.173133 -0.951027,2.124161 -2.124161,2.124161 z m -3.186246,-5.841451 c -0.879872,0 -1.593119,0.713257 -1.593119,1.593119 0,0.879872 0.713247,1.593128 1.593119,1.593128 0.879871,0 1.593118,-0.713256 1.593118,-1.593128 0,-0.879862 -0.713247,-1.593119 -1.593118,-1.593119 z m -4.248332,0 c -0.879863,0 -1.593119,0.713257 -1.593119,1.593119 0,0.879872 0.713256,1.593128 1.593119,1.593128 0.879871,0 1.593128,-0.713256 1.593128,-1.593128 0,-0.879862 -0.713257,-1.593119 -1.593128,-1.593119 z"
       id="path7134"
       style="stroke-width:0.06638;fill:#ffffff" /></g></svg>
