<?xml version="1.0" encoding="UTF-8" standalone="no"?>
<!-- Created with Inkscape (http://www.inkscape.org/) -->

<svg
   width="40.000004mm"
   height="60mm"
   viewBox="0 0 40.000003 60"
   version="1.1"
   id="svg7674"
   xml:space="preserve"
   inkscape:export-filename="device_create.svg"
   inkscape:export-xdpi="96"
   inkscape:export-ydpi="96"
   inkscape:version="1.2 (dc2aedaf03, 2022-05-15)"
   sodipodi:docname="storage.svg"
   xmlns:inkscape="http://www.inkscape.org/namespaces/inkscape"
   xmlns:sodipodi="http://sodipodi.sourceforge.net/DTD/sodipodi-0.dtd"
   xmlns="http://www.w3.org/2000/svg"
   xmlns:svg="http://www.w3.org/2000/svg"><sodipodi:namedview
     id="namedview7676"
     pagecolor="#bfbfbf"
     bordercolor="#000000"
     borderopacity="0.25"
     inkscape:showpageshadow="2"
     inkscape:pageopacity="0"
     inkscape:pagecheckerboard="0"
     inkscape:deskcolor="#d1d1d1"
     inkscape:document-units="px"
     showgrid="true"
     inkscape:zoom="3.7168282"
     inkscape:cx="80.983027"
     inkscape:cy="116.76623"
     inkscape:window-width="3436"
     inkscape:window-height="1401"
     inkscape:window-x="1080"
     inkscape:window-y="18"
     inkscape:window-maximized="1"
     inkscape:current-layer="layer1"><inkscape:grid
       type="xygrid"
       id="grid7678"
       units="mm"
       spacingx="0.99999998"
       spacingy="0.99999998"
       snapvisiblegridlinesonly="false" /></sodipodi:namedview><defs
     id="defs7671" /><g
     inkscape:label="Layer 1"
     inkscape:groupmode="layer"
     id="layer1"><path
       d="m 36.830306,33.571806 v 5.648347 c 0,1.559767 -1.264406,2.824173 -2.824173,2.824173 H 5.7644014 c -1.5597671,0 -2.8241735,-1.264406 -2.8241735,-2.824173 v -5.648347 c 0,-1.559767 1.2644064,-2.824172 2.8241735,-2.824172 H 34.006133 c 1.559767,0 2.824173,1.264405 2.824173,2.824172 z m -2.824173,-4.706955 a 4.6808903,4.6808903 0 0 1 1.810824,0.36273 l -5.679356,-8.519059 a 2.8243495,2.8243495 0 0 0 -2.349885,-1.25758 H 11.982817 a 2.8241731,2.8241731 0 0 0 -2.349829,1.25758 l -5.6794103,8.519059 a 4.6808903,4.6808903 0 0 1 1.8108237,-0.36273 z m -2.824173,5.648347 c -1.039826,0 -1.882783,0.842956 -1.882783,1.882782 0,1.039824 0.842957,1.882781 1.882783,1.882781 1.039824,0 1.882781,-0.842957 1.882781,-1.882781 0,-1.039826 -0.842957,-1.882782 -1.882781,-1.882782 z m -5.648348,0 c -1.039825,0 -1.882783,0.842956 -1.882783,1.882782 0,1.039824 0.842958,1.882781 1.882783,1.882781 1.039826,0 1.882783,-0.842957 1.882783,-1.882781 0,-1.039826 -0.842957,-1.882782 -1.882783,-1.882782 z"
       id="path17463"
       style="stroke-width:0.0588367;fill:#ffffff" /></g></svg>
